<?xml version="1.0" encoding="iso-8859-1"?>
<!-- Generator: Adobe Illustrator 19.1.0, SVG Export Plug-In . SVG Version: 6.00 Build 0)  -->
<svg version="1.1" id="Capa_1" xmlns="http://www.w3.org/2000/svg" xmlns:xlink="http://www.w3.org/1999/xlink" x="0px" y="0px"
	 viewBox="0 0 362.802 362.802" style="enable-background:new 0 0 362.802 362.802;" xml:space="preserve">
<g>
	<g id="Brushes_2_">
		<g>
			<path d="M340.127,45.35h-22.675V0H22.675v45.35H11.338C5.079,45.35,0,50.43,0,56.688s5.079,11.338,11.338,11.338h11.338v45.35
				h294.777v-45.35h22.675v68.025H181.401c-12.517,0-22.675,10.158-22.675,22.675v68.025h-11.338v113.376
				c0,12.517,10.158,22.675,22.675,22.675s22.675-10.158,22.675-22.675V226.751h-11.338v-68.025h158.726
				c12.517,0,22.675-10.158,22.675-22.675V68.025C362.802,55.509,352.644,45.35,340.127,45.35z M294.777,90.701H45.35V22.675
				h249.427V90.701z"/>
		</g>
	</g>
</g>
<g>
</g>
<g>
</g>
<g>
</g>
<g>
</g>
<g>
</g>
<g>
</g>
<g>
</g>
<g>
</g>
<g>
</g>
<g>
</g>
<g>
</g>
<g>
</g>
<g>
</g>
<g>
</g>
<g>
</g>
</svg>
