<?xml version="1.0" encoding="iso-8859-1"?>
<!-- Generator: Adobe Illustrator 16.0.0, SVG Export Plug-In . SVG Version: 6.00 Build 0)  -->
<!DOCTYPE svg PUBLIC "-//W3C//DTD SVG 1.1//EN" "http://www.w3.org/Graphics/SVG/1.1/DTD/svg11.dtd">
<svg version="1.1" id="Capa_1" xmlns="http://www.w3.org/2000/svg" xmlns:xlink="http://www.w3.org/1999/xlink" x="0px" y="0px"
	 width="47.039px" height="47.039px" viewBox="0 0 47.039 47.039" style="enable-background:new 0 0 47.039 47.039;"
	 xml:space="preserve">
<g>
	<g>
		<path d="M32.572,9.815C32.49,9.162,31.92,8.649,31.26,8.649h-4.967c-0.723,0-1.332,0.629-1.332,1.351v6.68
			c0,2.5-1.559,4.731-3.916,5.578c-5.209,1.805-8.678,6.745-8.678,12.268v9.476c0,1.675,1.352,3.038,3.026,3.038h16.213
			c1.676,0,3.065-1.363,3.065-3.038V26.424L32.572,9.815z"/>
		<path d="M31.281,0H18.438C17.6,0,16.92,0.679,16.92,1.517c-0.67,0-1.213,0.543-1.213,1.213v0.078c0,0.67,0.543,1.213,1.213,1.213
			c0,0.838,0.68,1.518,1.518,1.518h2.915c-0.005,1.065-0.202,3.256-1.5,5.415c-0.304,0.504-0.15,1.157,0.345,1.475l0.026,0.017
			c0.225,0.144,0.497,0.191,0.756,0.132c0.26-0.06,0.484-0.221,0.623-0.448c1.606-2.617,1.891-5.28,1.896-6.59h1.766v0.853
			c0,0.492,0.4,0.892,0.893,0.892h5.12c0.492,0,0.892-0.399,0.892-0.892V5.539c0.797,0,1.441-0.646,1.441-1.441V2.091
			C33.611,1.333,32.685,0,31.281,0z"/>
	</g>
</g>
<g>
</g>
<g>
</g>
<g>
</g>
<g>
</g>
<g>
</g>
<g>
</g>
<g>
</g>
<g>
</g>
<g>
</g>
<g>
</g>
<g>
</g>
<g>
</g>
<g>
</g>
<g>
</g>
<g>
</g>
</svg>
