<?xml version="1.0" encoding="iso-8859-1"?>
<!-- Generator: Adobe Illustrator 18.1.1, SVG Export Plug-In . SVG Version: 6.00 Build 0)  -->
<svg version="1.1" id="Capa_1" xmlns="http://www.w3.org/2000/svg" xmlns:xlink="http://www.w3.org/1999/xlink" x="0px" y="0px"
	 viewBox="0 0 612.001 612.001" style="enable-background:new 0 0 612.001 612.001;" xml:space="preserve">
<g>
	<g>
		<path d="M424.36,220.87c40.245-0.005,61.299-28.889,61.297-57.418c-0.001-28.522-21.059-57.396-61.298-57.396
			c-7.683,0-15.76,1.026-24.199,3.069c27.771-29.102,25.623-55.062,22.445-66.928C416.052,17.746,392.6,0,366.839,0
			c-18.263,0-34.826,8.872-46.637,24.98c-6.067,8.276-10.807,18.217-14.2,29.758c-3.393-11.544-8.133-21.485-14.201-29.761
			C279.991,8.869,263.428,0,245.163,0c-25.757,0-49.207,17.746-55.759,42.199c-3.18,11.865-5.328,37.827,22.441,66.928
			c-8.439-2.042-16.518-3.069-24.201-3.069c-40.242,0-61.298,28.881-61.298,57.411c0,28.526,21.056,57.404,61.298,57.404
			c7.683,0,15.76-1.028,24.2-3.07c-27.771,29.105-25.623,55.068-22.444,66.933c6.552,24.45,30.006,42.196,55.766,42.195
			c18.263-0.003,34.826-8.874,46.637-24.983c0.878-1.199,1.721-2.442,2.544-3.711v167.641c-3.247-4.744-6.972-9.315-11.25-13.594
			c-29.762-29.762-73.397-32.976-90.775-32.976c-4.612,0-27.957,0.338-34.613,6.993c-6.117,6.12-7.791,31.15-5.832,50.832
			c2.155,21.652,9.422,52.162,31.816,74.555c29.652,29.652,73.383,32.855,90.809,32.855c2.663,0,11.541-0.112,19.849-1.451v16.145
			c0,7.049,5.715,12.765,12.765,12.765c7.05,0,12.765-5.716,12.765-12.765v-60.701c7.247,1.102,14.786,1.196,17.099,1.196
			c15.528,0,54.484-2.843,80.805-29.163c20.031-20.03,26.604-46.977,28.59-66.054c1.837-17.644,0.489-39.697-5.627-45.814
			c-5.799-5.799-26.871-6.093-31.036-6.093c-15.567,0-54.607,2.831-80.833,29.057c-3.37,3.37-6.349,6.942-8.997,10.638V301.484
			c0.111,0.153,0.214,0.315,0.326,0.467c11.808,16.106,28.367,24.975,46.628,24.975c0.004,0,0.009,0,0.012,0
			c25.76-0.006,49.21-17.756,55.759-42.208c3.177-11.863,5.32-37.822-22.44-66.917c8.436,2.042,16.512,3.069,24.19,3.069
			C424.352,220.87,424.357,220.87,424.36,220.87z M306,212.149c-26.845,0-48.686-21.84-48.686-48.687
			c0-26.844,21.84-48.685,48.686-48.685c26.846,0,48.686,21.84,48.686,48.685C354.686,190.309,332.846,212.149,306,212.149z"/>
	</g>
</g>
<g>
</g>
<g>
</g>
<g>
</g>
<g>
</g>
<g>
</g>
<g>
</g>
<g>
</g>
<g>
</g>
<g>
</g>
<g>
</g>
<g>
</g>
<g>
</g>
<g>
</g>
<g>
</g>
<g>
</g>
</svg>
